<svg width="33" height="32" viewBox="0 0 33 32" fill="none" xmlns="http://www.w3.org/2000/svg">
<g clip-path="url(#clip0_347_151)">
<path d="M16.2553 10.6982C13.336 10.6982 10.9536 13.0806 10.9536 15.9999C10.9536 18.9192 13.336 21.3016 16.2553 21.3016C19.1746 21.3016 21.557 18.9192 21.557 15.9999C21.557 13.0806 19.1746 10.6982 16.2553 10.6982ZM32.1565 15.9999C32.1565 13.8045 32.1763 11.6289 32.0531 9.4374C31.9298 6.89195 31.3491 4.63286 29.4877 2.7715C27.6224 0.906154 25.3673 0.32945 22.8218 0.206155C20.6263 0.0828591 18.4508 0.102746 16.2593 0.102746C14.0638 0.102746 11.8883 0.0828591 9.6968 0.206155C7.15135 0.32945 4.89226 0.910132 3.03089 2.7715C1.16555 4.63684 0.588849 6.89195 0.465554 9.4374C0.342259 11.6329 0.362145 13.8084 0.362145 15.9999C0.362145 18.1914 0.342259 20.3709 0.465554 22.5624C0.588849 25.1079 1.16953 27.367 3.03089 29.2283C4.89624 31.0937 7.15135 31.6704 9.6968 31.7937C11.8923 31.917 14.0678 31.8971 16.2593 31.8971C18.4548 31.8971 20.6303 31.917 22.8218 31.7937C25.3673 31.6704 27.6264 31.0897 29.4877 29.2283C31.3531 27.363 31.9298 25.1079 32.0531 22.5624C32.1803 20.3709 32.1565 18.1954 32.1565 15.9999ZM16.2553 24.1573C11.7411 24.1573 8.09794 20.5141 8.09794 15.9999C8.09794 11.4857 11.7411 7.84252 16.2553 7.84252C20.7695 7.84252 24.4127 11.4857 24.4127 15.9999C24.4127 20.5141 20.7695 24.1573 16.2553 24.1573ZM24.7468 9.41354C23.6928 9.41354 22.8417 8.5624 22.8417 7.50843C22.8417 6.45445 23.6928 5.60331 24.7468 5.60331C25.8008 5.60331 26.6519 6.45445 26.6519 7.50843C26.6522 7.7587 26.6032 8.00657 26.5075 8.23785C26.4119 8.46914 26.2716 8.67928 26.0946 8.85625C25.9177 9.03322 25.7075 9.17353 25.4762 9.26916C25.245 9.36479 24.9971 9.41386 24.7468 9.41354Z" fill="white"/>
</g>
<defs>
<clipPath id="clip0_347_151">
<rect width="32" height="32" fill="white" transform="translate(0.255371)"/>
</clipPath>
</defs>
</svg>
