<svg width="58" height="32" viewBox="0 0 58 32" fill="none" xmlns="http://www.w3.org/2000/svg">
<g clip-path="url(#clip0_347_132)">
<path d="M24.8915 17.9822L24.5618 5.95749C24.5618 5.58364 24.2541 5.29785 23.9023 5.29785C23.5287 5.29785 23.2429 5.58364 23.2429 5.95749L22.9351 17.9822L23.2429 23.7636C23.2429 24.1375 23.5506 24.4233 23.9023 24.4233C24.276 24.4233 24.5618 24.1375 24.5618 23.7636L24.8915 17.9822Z" fill="url(#paint0_linear_347_132)"/>
<path d="M24.8915 17.9822L24.5618 5.95749C24.5618 5.58364 24.2541 5.29785 23.9023 5.29785C23.5287 5.29785 23.2429 5.58364 23.2429 5.95749L22.9351 17.9822L23.2429 23.7636C23.2429 24.1375 23.5506 24.4233 23.9023 24.4233C24.276 24.4233 24.5618 24.1375 24.5618 23.7636L24.8915 17.9822Z" fill="white"/>
<path d="M22.5174 17.9823L22.1437 5.49566C22.1438 5.4148 22.128 5.33472 22.0971 5.26001C22.0662 5.18529 22.0209 5.11741 21.9637 5.06025C21.9065 5.00309 21.8386 4.95777 21.7639 4.92691C21.6892 4.89604 21.6091 4.88023 21.5282 4.88037C21.4473 4.8802 21.3672 4.896 21.2924 4.92687C21.2177 4.95773 21.1497 5.00306 21.0925 5.06025C21.0353 5.11743 20.99 5.18535 20.9591 5.26011C20.9282 5.33487 20.9124 5.41499 20.9125 5.49588L20.583 17.9604L20.9127 23.7857C20.9125 23.8666 20.9283 23.9468 20.9592 24.0215C20.9901 24.0963 21.0354 24.1642 21.0926 24.2214C21.1498 24.2787 21.2177 24.324 21.2925 24.3549C21.3672 24.3858 21.4473 24.4016 21.5282 24.4015C21.6091 24.4016 21.6893 24.3858 21.7641 24.355C21.8388 24.3241 21.9068 24.2787 21.964 24.2215C22.0212 24.1643 22.0666 24.0964 22.0974 24.0216C22.1283 23.9468 22.1441 23.8667 22.1439 23.7857L22.5174 17.9823Z" fill="url(#paint1_linear_347_132)"/>
<path d="M22.5174 17.9823L22.1437 5.49566C22.1438 5.4148 22.128 5.33472 22.0971 5.26001C22.0662 5.18529 22.0209 5.11741 21.9637 5.06025C21.9065 5.00309 21.8386 4.95777 21.7639 4.92691C21.6892 4.89604 21.6091 4.88023 21.5282 4.88037C21.4473 4.8802 21.3672 4.896 21.2924 4.92687C21.2177 4.95773 21.1497 5.00306 21.0925 5.06025C21.0353 5.11743 20.99 5.18535 20.9591 5.26011C20.9282 5.33487 20.9124 5.41499 20.9125 5.49588L20.583 17.9604L20.9127 23.7857C20.9125 23.8666 20.9283 23.9468 20.9592 24.0215C20.9901 24.0963 21.0354 24.1642 21.0926 24.2214C21.1498 24.2787 21.2177 24.324 21.2925 24.3549C21.3672 24.3858 21.4473 24.4016 21.5282 24.4015C21.6091 24.4016 21.6893 24.3858 21.7641 24.355C21.8388 24.3241 21.9068 24.2787 21.964 24.2215C22.0212 24.1643 22.0666 24.0964 22.0974 24.0216C22.1283 23.9468 22.1441 23.8667 22.1439 23.7857L22.5174 17.9823Z" fill="white"/>
<path d="M17.3956 5.5836C17.3736 5.29781 17.1538 5.05615 16.8682 5.05615C16.5824 5.05615 16.3624 5.27596 16.3405 5.5836L15.9667 17.9601L16.3405 23.8735C16.3405 24.1593 16.5824 24.3791 16.868 24.3791C17.1538 24.3791 17.3738 24.1593 17.3956 23.8516L17.8353 17.938L17.3956 5.58382V5.5836Z" fill="url(#paint2_linear_347_132)"/>
<path d="M17.3956 5.5836C17.3736 5.29781 17.1538 5.05615 16.8682 5.05615C16.5824 5.05615 16.3624 5.27596 16.3405 5.5836L15.9667 17.9601L16.3405 23.8735C16.3405 24.1593 16.5824 24.3791 16.868 24.3791C17.1538 24.3791 17.3738 24.1593 17.3956 23.8516L17.8353 17.938L17.3956 5.58382V5.5836Z" fill="white"/>
<path d="M19.7695 5.16608C19.7695 4.85822 19.5058 4.5945 19.1979 4.5945C19.1227 4.59397 19.0482 4.60839 18.9786 4.63693C18.909 4.66547 18.8458 4.70755 18.7926 4.76073C18.7394 4.81391 18.6973 4.87714 18.6688 4.94672C18.6402 5.01631 18.6258 5.09087 18.6263 5.16608L18.2748 17.9601L18.6263 23.8296C18.6263 24.1375 18.8903 24.4012 19.1979 24.4012C19.5058 24.4012 19.7474 24.1593 19.7695 23.8296L20.1652 17.9601L19.7695 5.16608Z" fill="url(#paint3_linear_347_132)"/>
<path d="M19.7695 5.16608C19.7695 4.85822 19.5058 4.5945 19.1979 4.5945C19.1227 4.59397 19.0482 4.60839 18.9786 4.63693C18.909 4.66547 18.8458 4.70755 18.7926 4.76073C18.7394 4.81391 18.6973 4.87714 18.6688 4.94672C18.6402 5.01631 18.6258 5.09087 18.6263 5.16608L18.2748 17.9601L18.6263 23.8296C18.6263 24.1375 18.8903 24.4012 19.1979 24.4012C19.5058 24.4012 19.7474 24.1593 19.7695 23.8296L20.1652 17.9601L19.7695 5.16608Z" fill="white"/>
<path d="M7.78892 24.2471C7.96481 24.2471 8.09678 24.1153 8.11863 23.9176L8.69022 17.9601L8.11863 11.805C8.09656 11.6289 7.96481 11.4751 7.78892 11.4751C7.61303 11.4751 7.48128 11.6071 7.45921 11.8048L6.95361 17.9601L7.45921 23.9176C7.45921 24.1153 7.61303 24.2473 7.78892 24.2473V24.2471Z" fill="url(#paint4_linear_347_132)"/>
<path d="M7.78892 24.2471C7.96481 24.2471 8.09678 24.1153 8.11863 23.9176L8.69022 17.9601L8.11863 11.805C8.09656 11.6289 7.96481 11.4751 7.78892 11.4751C7.61303 11.4751 7.48128 11.6071 7.45921 11.8048L6.95361 17.9601L7.45921 23.9176C7.45921 24.1153 7.61303 24.2473 7.78892 24.2473V24.2471Z" fill="white"/>
<path d="M27.2879 17.9824L26.98 3.6934C26.98 3.45153 26.8483 3.23172 26.6503 3.09975C26.5404 3.03376 26.4087 2.96777 26.2546 2.96777C26.1229 2.96777 25.9909 3.01191 25.8589 3.0779C25.6612 3.20965 25.5292 3.42946 25.5292 3.67133V3.8033L25.2655 17.9605L25.5292 23.698V23.7201C25.5292 23.8737 25.5952 24.0277 25.7051 24.1376C25.8371 24.2915 26.0348 24.4014 26.2546 24.4014C26.4526 24.4014 26.6285 24.3135 26.7602 24.2036C26.8922 24.0717 26.98 23.8958 26.98 23.698L27.0021 23.1264L27.2879 17.9822V17.9824Z" fill="url(#paint5_linear_347_132)"/>
<path d="M27.2879 17.9824L26.98 3.6934C26.98 3.45153 26.8483 3.23172 26.6503 3.09975C26.5404 3.03376 26.4087 2.96777 26.2546 2.96777C26.1229 2.96777 25.9909 3.01191 25.8589 3.0779C25.6612 3.20965 25.5292 3.42946 25.5292 3.67133V3.8033L25.2655 17.9605L25.5292 23.698V23.7201C25.5292 23.8737 25.5952 24.0277 25.7051 24.1376C25.8371 24.2915 26.0348 24.4014 26.2546 24.4014C26.4526 24.4014 26.6285 24.3135 26.7602 24.2036C26.8922 24.0717 26.98 23.8958 26.98 23.698L27.0021 23.1264L27.2879 17.9822V17.9824Z" fill="white"/>
<path d="M10.4048 12.2445C10.3828 12.0247 10.2289 11.8708 10.031 11.8708C9.83325 11.8708 9.65736 12.0247 9.65736 12.2445L9.19568 17.9603L9.65736 23.9616C9.67943 24.1814 9.83325 24.3352 10.031 24.3352C10.2289 24.3352 10.4048 24.1814 10.4048 23.9616L10.9323 17.9601L10.4048 12.2445Z" fill="url(#paint6_linear_347_132)"/>
<path d="M10.4048 12.2445C10.3828 12.0247 10.2289 11.8708 10.031 11.8708C9.83325 11.8708 9.65736 12.0247 9.65736 12.2445L9.19568 17.9603L9.65736 23.9616C9.67943 24.1814 9.83325 24.3352 10.031 24.3352C10.2289 24.3352 10.4048 24.1814 10.4048 23.9616L10.9323 17.9601L10.4048 12.2445Z" fill="white"/>
<path d="M12.2955 8.24365C12.0757 8.24365 11.878 8.41954 11.878 8.66142L11.4384 17.9602L11.8777 23.9616C11.8998 24.2035 12.0755 24.3792 12.2953 24.3792C12.5151 24.3792 12.7131 24.2035 12.7131 23.9616L13.2187 17.9602L12.7131 8.66142C12.7131 8.44161 12.5151 8.24365 12.2953 8.24365H12.2955Z" fill="url(#paint7_linear_347_132)"/>
<path d="M12.2955 8.24365C12.0757 8.24365 11.878 8.41954 11.878 8.66142L11.4384 17.9602L11.8777 23.9616C11.8998 24.2035 12.0755 24.3792 12.2953 24.3792C12.5151 24.3792 12.7131 24.2035 12.7131 23.9616L13.2187 17.9602L12.7131 8.66142C12.7131 8.44161 12.5151 8.24365 12.2953 8.24365H12.2955Z" fill="white"/>
<path d="M15.0213 23.9617L15.483 17.9823L15.0213 6.55104C14.9992 6.28731 14.8015 6.08936 14.5378 6.08936C14.2738 6.08936 14.0761 6.28731 14.054 6.55104L13.6365 17.9823L14.054 23.9617C14.054 24.2254 14.2738 24.4234 14.5378 24.4234C14.8015 24.4454 14.9994 24.2254 15.0213 23.9617Z" fill="url(#paint8_linear_347_132)"/>
<path d="M15.0213 23.9617L15.483 17.9823L15.0213 6.55104C14.9992 6.28731 14.8015 6.08936 14.5378 6.08936C14.2738 6.08936 14.0761 6.28731 14.054 6.55104L13.6365 17.9823L14.054 23.9617C14.054 24.2254 14.2738 24.4234 14.5378 24.4234C14.8015 24.4454 14.9994 24.2254 15.0213 23.9617Z" fill="white"/>
<path d="M29.0245 1.73684C28.9052 1.66447 28.7683 1.62636 28.6288 1.62671C28.4529 1.62671 28.2773 1.6927 28.1453 1.8026C27.9694 1.93457 27.8595 2.15438 27.8595 2.39626V2.48409L27.5516 18.0041L27.7057 20.862L27.8595 23.6537C27.8595 24.0715 28.2113 24.4012 28.6288 24.4012C29.0466 24.4012 29.3763 24.0494 29.3984 23.6319L29.7281 17.9822L29.3984 2.39626C29.3763 2.11046 29.2443 1.86859 29.0245 1.73661V1.73684Z" fill="url(#paint9_linear_347_132)"/>
<path d="M29.0245 1.73684C28.9052 1.66447 28.7683 1.62636 28.6288 1.62671C28.4529 1.62671 28.2773 1.6927 28.1453 1.8026C27.9694 1.93457 27.8595 2.15438 27.8595 2.39626V2.48409L27.5516 18.0041L27.7057 20.862L27.8595 23.6537C27.8595 24.0715 28.2113 24.4012 28.6288 24.4012C29.0466 24.4012 29.3763 24.0494 29.3984 23.6319L29.7281 17.9822L29.3984 2.39626C29.3763 2.11046 29.2443 1.86859 29.0245 1.73661V1.73684Z" fill="white"/>
<path d="M1.26001 21.2577C1.36991 21.2577 1.45775 21.1696 1.47982 21.0379L1.96335 17.9601L1.47982 14.8385C1.45775 14.7067 1.36991 14.6187 1.26001 14.6187C1.20175 14.6188 1.14591 14.642 1.10471 14.6832C1.06351 14.7244 1.04032 14.7802 1.0402 14.8385L0.622437 17.9601L1.0402 21.0379C1.0402 21.1696 1.15011 21.2577 1.26001 21.2577Z" fill="white"/>
<path d="M3.3484 23.126C3.4583 23.126 3.56821 23.0382 3.59006 22.9064L4.22785 17.9601L3.59006 12.9041C3.56799 12.7721 3.48015 12.6841 3.3484 12.6841C3.2385 12.6841 3.12859 12.7721 3.10652 12.9041L2.55701 17.9601L3.10652 22.9064C3.12859 23.0382 3.21643 23.1262 3.3484 23.1262V23.126Z" fill="white"/>
<path d="M5.54688 24.0275C5.7007 24.0275 5.81061 23.9176 5.83268 23.7417L6.42633 17.9601L5.83268 11.9586C5.81061 11.8048 5.7007 11.6729 5.54688 11.6729C5.39306 11.6729 5.28316 11.7828 5.26109 11.9586L4.73364 17.9601L5.26109 23.7417C5.28316 23.8955 5.39306 24.0275 5.54688 24.0275Z" fill="url(#paint10_linear_347_132)"/>
<path d="M5.54688 24.0275C5.7007 24.0275 5.81061 23.9176 5.83268 23.7417L6.42633 17.9601L5.83268 11.9586C5.81061 11.8048 5.7007 11.6729 5.54688 11.6729C5.39306 11.6729 5.28316 11.7828 5.26109 11.9586L4.73364 17.9601L5.26109 23.7417C5.28316 23.8955 5.39306 24.0275 5.54688 24.0275Z" fill="white"/>
<path d="M49.9746 10.5958C49.0293 10.5958 48.128 10.7937 47.2927 11.1234C46.7432 4.90218 41.5111 0 35.1361 0C33.624 0.00114715 32.1255 0.284432 30.7174 0.83531C30.19 1.03327 30.058 1.25308 30.058 1.64877V23.6098C30.058 24.0276 30.3877 24.3573 30.8055 24.4012H49.9966C53.8216 24.4012 56.9214 21.3455 56.9214 17.5206C56.8993 13.6956 53.7998 10.5958 49.9746 10.5958Z" fill="white"/>
<path d="M6.1401 28.5779C5.32686 28.3802 5.10705 28.2921 5.10705 27.9624C5.10705 27.7426 5.28294 27.5007 5.83246 27.5007C6.29414 27.5007 6.66777 27.6987 6.9977 28.0282L7.74496 27.303C7.26121 26.7974 6.66777 26.4895 5.87638 26.4895C4.86518 26.4895 4.05172 27.0611 4.05172 27.9845C4.05172 28.9957 4.71136 29.3033 5.65657 29.5013C6.62385 29.7211 6.79974 29.8749 6.79974 30.2046C6.79974 30.6003 6.51395 30.7541 5.89845 30.7541C5.4147 30.7541 4.95301 30.5784 4.57939 30.1607L3.83191 30.8201C4.22761 31.3917 4.97508 31.7435 5.81039 31.7435C7.21729 31.7435 7.81094 31.084 7.81094 30.1168C7.85486 29.0396 6.95356 28.7538 6.14032 28.5779H6.1401ZM10.8666 26.5116C9.45972 26.5116 8.64626 27.5885 8.64626 29.1495C8.64626 30.7102 9.48156 31.7874 10.8664 31.7874C12.2514 31.7874 13.0868 30.7104 13.0868 29.1495C13.0868 27.5888 12.2514 26.5116 10.8666 26.5116ZM10.8666 30.7543C10.0311 30.7543 9.70137 30.0508 9.70137 29.1274C9.70137 28.2043 10.0532 27.5009 10.8666 27.5009C11.7019 27.5009 12.0319 28.2043 12.0319 29.1274C12.0319 30.0508 11.6799 30.7543 10.8666 30.7543ZM17.2196 29.4573C17.2196 30.2706 16.8239 30.7762 16.1645 30.7762C15.5051 30.7762 15.1094 30.2487 15.1094 29.4353V26.5773H14.0761V29.4573C14.0761 30.9521 14.9114 31.7874 16.1424 31.7874C17.4394 31.7874 18.209 30.9302 18.209 29.4573V26.5994H17.1757V29.4573H17.2198H17.2196ZM22.6495 28.7538C22.6495 29.0396 22.6715 29.6771 22.6715 29.8749C22.6053 29.7431 22.4296 29.4792 22.3197 29.3033L20.4951 26.5994H19.506V31.7216H20.5172V29.4573C20.5172 29.1715 20.4951 28.534 20.4951 28.3362C20.5613 28.468 20.737 28.7317 20.8469 28.9078L22.7154 31.6995H23.6388V26.5773H22.6274V28.7538H22.6495ZM26.5844 26.5776H24.9797V31.6995H26.4965C27.8156 31.6995 29.1126 30.9302 29.1126 29.1495C29.1126 27.259 28.0354 26.5776 26.5844 26.5776ZM26.4965 30.7102H25.9909V27.5888H26.5404C27.6176 27.5888 28.0793 28.1162 28.0793 29.1495C28.0793 30.0728 27.5737 30.7102 26.4965 30.7102ZM32.2781 27.5228C32.7398 27.5228 33.0254 27.7205 33.2234 28.0723L34.1686 27.6327C33.8389 26.9733 33.2673 26.4895 32.3 26.4895C30.9591 26.4895 30.0357 27.5667 30.0357 29.1274C30.0357 30.7323 30.937 31.7655 32.2779 31.7655C33.2013 31.7655 33.8168 31.3259 34.1686 30.6003L33.3112 30.0949C33.0475 30.5564 32.7617 30.7543 32.3 30.7543C31.5307 30.7543 31.0911 30.0508 31.0911 29.1274C31.0911 28.1822 31.5307 27.5228 32.2781 27.5228ZM36.0811 26.5776H35.048V31.6995H38.1255V30.6883H36.0811V26.5776ZM40.8294 26.5114C39.4225 26.5114 38.6093 27.5888 38.6093 29.1495C38.6093 30.7102 39.4446 31.7874 40.8294 31.7874C42.2363 31.7874 43.0498 30.7104 43.0498 29.1495C43.0498 27.5888 42.2363 26.5116 40.8296 26.5116L40.8294 26.5114ZM40.8294 30.7543C39.9941 30.7543 39.6642 30.0508 39.6642 29.1274C39.6642 28.2043 40.0162 27.5009 40.8294 27.5009C41.665 27.5009 41.9947 28.2043 41.9947 29.1274C41.9947 30.0508 41.665 30.7543 40.8294 30.7543ZM47.1826 29.4573C47.1826 30.2706 46.7869 30.7762 46.1275 30.7762C45.4679 30.7762 45.0722 30.2487 45.0722 29.4353V26.5773H44.0391V29.4573C44.0391 30.9521 44.8745 31.7874 46.1055 31.7874C47.4025 31.7874 48.1718 30.9302 48.1718 29.4573V26.5994H47.1387V29.4573H47.1826ZM51.0955 26.5773H49.4908V31.6995H51.0076C52.3267 31.6995 53.6237 30.9302 53.6237 29.1495C53.6237 27.259 52.5465 26.5776 51.0957 26.5776L51.0955 26.5773ZM51.0076 30.7102H50.5241V27.5888H51.0736C52.1506 27.5888 52.5904 28.1162 52.5904 29.1495C52.5904 30.0728 52.085 30.7102 51.0076 30.7102Z" fill="white"/>
</g>
<defs>
<linearGradient id="paint0_linear_347_132" x1="23.9078" y1="-7.74113e-05" x2="23.9078" y2="24.4393" gradientUnits="userSpaceOnUse">
<stop stop-color="#F6871F"/>
<stop offset="0.2393" stop-color="#F57E20"/>
<stop offset="0.6262" stop-color="#F36621"/>
<stop offset="1" stop-color="#F04923"/>
</linearGradient>
<linearGradient id="paint1_linear_347_132" x1="21.5542" y1="9.53674e-05" x2="21.5542" y2="24.4395" gradientUnits="userSpaceOnUse">
<stop stop-color="#F6871F"/>
<stop offset="0.2393" stop-color="#F57E20"/>
<stop offset="0.6262" stop-color="#F36621"/>
<stop offset="1" stop-color="#F04923"/>
</linearGradient>
<linearGradient id="paint2_linear_347_132" x1="16.9015" y1="0.00011569" x2="16.9015" y2="24.4392" gradientUnits="userSpaceOnUse">
<stop stop-color="#F6871F"/>
<stop offset="0.2393" stop-color="#F57E20"/>
<stop offset="0.6262" stop-color="#F36621"/>
<stop offset="1" stop-color="#F04923"/>
</linearGradient>
<linearGradient id="paint3_linear_347_132" x1="19.2188" y1="0.00012156" x2="19.2188" y2="24.4394" gradientUnits="userSpaceOnUse">
<stop stop-color="#F6871F"/>
<stop offset="0.2393" stop-color="#F57E20"/>
<stop offset="0.6262" stop-color="#F36621"/>
<stop offset="1" stop-color="#F04923"/>
</linearGradient>
<linearGradient id="paint4_linear_347_132" x1="7.81367" y1="-7.29405e-05" x2="7.81367" y2="24.4394" gradientUnits="userSpaceOnUse">
<stop stop-color="#F6871F"/>
<stop offset="0.2393" stop-color="#F57E20"/>
<stop offset="0.6262" stop-color="#F36621"/>
<stop offset="1" stop-color="#F04923"/>
</linearGradient>
<linearGradient id="paint5_linear_347_132" x1="26.2798" y1="7.71764e-05" x2="26.2798" y2="24.4397" gradientUnits="userSpaceOnUse">
<stop stop-color="#F6871F"/>
<stop offset="0.2393" stop-color="#F57E20"/>
<stop offset="0.6262" stop-color="#F36621"/>
<stop offset="1" stop-color="#F04923"/>
</linearGradient>
<linearGradient id="paint6_linear_347_132" x1="10.0581" y1="6.28383e-05" x2="10.0581" y2="24.4394" gradientUnits="userSpaceOnUse">
<stop stop-color="#F6871F"/>
<stop offset="0.2393" stop-color="#F57E20"/>
<stop offset="0.6262" stop-color="#F36621"/>
<stop offset="1" stop-color="#F04923"/>
</linearGradient>
<linearGradient id="paint7_linear_347_132" x1="12.3213" y1="2.61695e-05" x2="12.3213" y2="24.4393" gradientUnits="userSpaceOnUse">
<stop stop-color="#F6871F"/>
<stop offset="0.2393" stop-color="#F57E20"/>
<stop offset="0.6262" stop-color="#F36621"/>
<stop offset="1" stop-color="#F04923"/>
</linearGradient>
<linearGradient id="paint8_linear_347_132" x1="14.5674" y1="-6.25848e-05" x2="14.5674" y2="24.4396" gradientUnits="userSpaceOnUse">
<stop stop-color="#F6871F"/>
<stop offset="0.2393" stop-color="#F57E20"/>
<stop offset="0.6262" stop-color="#F36621"/>
<stop offset="1" stop-color="#F04923"/>
</linearGradient>
<linearGradient id="paint9_linear_347_132" x1="28.6406" y1="-7.40428e-05" x2="28.6406" y2="24.4395" gradientUnits="userSpaceOnUse">
<stop stop-color="#F6871F"/>
<stop offset="0.2393" stop-color="#F57E20"/>
<stop offset="0.6262" stop-color="#F36621"/>
<stop offset="1" stop-color="#F04923"/>
</linearGradient>
<linearGradient id="paint10_linear_347_132" x1="5.58713" y1="-0.000307427" x2="5.58713" y2="24.4394" gradientUnits="userSpaceOnUse">
<stop stop-color="#F6871F"/>
<stop offset="0.2393" stop-color="#F57E20"/>
<stop offset="0.6262" stop-color="#F36621"/>
<stop offset="1" stop-color="#F04923"/>
</linearGradient>
<clipPath id="clip0_347_132">
<rect width="56.4966" height="32" fill="white" transform="translate(0.622437)"/>
</clipPath>
</defs>
</svg>
