<svg width="33" height="32" viewBox="0 0 33 32" fill="none" xmlns="http://www.w3.org/2000/svg">
<g clip-path="url(#clip0_347_148)">
<path d="M16.6158 0C7.7971 0 0.622437 7.176 0.622437 15.9947C0.622437 24.8213 7.7971 32 16.6158 32C25.4424 32 32.6224 24.82 32.6224 15.9947C32.6224 7.176 25.4424 0 16.6158 0ZM8.49977 21.872C10.331 21.311 12.2352 21.0244 14.1504 21.0213C17.3691 21.0213 20.5464 21.8373 23.3398 23.3813C23.5064 23.472 23.6571 23.7707 23.7264 24.144C23.7931 24.5173 23.7664 24.9 23.6571 25.0987C23.6056 25.1932 23.5358 25.2765 23.4518 25.3438C23.3679 25.4112 23.2714 25.4612 23.1679 25.4909C23.0645 25.5207 22.9562 25.5296 22.8493 25.5172C22.7424 25.5048 22.639 25.4713 22.5451 25.4187C20.4934 24.2931 18.2365 23.5911 15.9083 23.3543C13.5801 23.1175 11.2281 23.3506 8.99177 24.04C8.88911 24.0732 8.78086 24.0856 8.67334 24.0766C8.56583 24.0675 8.46118 24.0372 8.36551 23.9873C8.26984 23.9374 8.18504 23.869 8.11607 23.786C8.0471 23.703 7.99533 23.6072 7.96377 23.504C7.8211 23.0373 8.11577 21.9973 8.49977 21.872ZM7.80244 15.9787C9.87117 15.4166 12.0054 15.1319 14.1491 15.132C18.0078 15.132 21.8384 16.0653 25.2291 17.8333C25.4678 17.9533 25.6424 18.1587 25.7224 18.4093C25.7629 18.5359 25.7776 18.6693 25.7657 18.8017C25.7538 18.934 25.7155 19.0627 25.6531 19.18C25.3504 19.772 24.9958 20.1707 24.7731 20.1707C24.6107 20.17 24.4507 20.1306 24.3064 20.056C21.172 18.4196 17.6863 17.5711 14.1504 17.584C12.1837 17.5801 10.2254 17.8424 8.3291 18.364C8.2026 18.3986 8.07052 18.4079 7.94041 18.3914C7.81029 18.375 7.6847 18.3331 7.57079 18.2681C7.45689 18.2031 7.3569 18.1163 7.27654 18.0126C7.19618 17.909 7.13702 17.7905 7.10244 17.664C6.9531 17.1013 7.29577 16.1173 7.80244 15.9787ZM7.62244 12.1307C7.47236 12.1692 7.31614 12.1776 7.1628 12.1554C7.00946 12.1332 6.86202 12.0809 6.72901 12.0014C6.596 11.922 6.48004 11.817 6.38783 11.6925C6.29562 11.5679 6.22899 11.4264 6.19177 11.276C6.02777 10.612 6.44244 9.84133 7.0451 9.68933C9.36978 9.11676 11.755 8.82622 14.1491 8.824C18.7491 8.824 23.1571 9.85867 27.2478 11.9C27.5288 12.0398 27.7429 12.2854 27.8429 12.5829C27.9429 12.8805 27.9207 13.2055 27.7811 13.4867C27.5904 13.8707 27.1771 14.284 26.7211 14.284C26.5423 14.2833 26.3658 14.2438 26.2038 14.168C22.4632 12.2915 18.3339 11.3205 14.1491 11.3333C11.9691 11.3333 9.7731 11.6013 7.62244 12.1307Z" fill="white"/>
</g>
<defs>
<clipPath id="clip0_347_148">
<rect width="32" height="32" fill="white" transform="translate(0.622437)"/>
</clipPath>
</defs>
</svg>
