<svg width="46" height="32" viewBox="0 0 46 32" fill="none" xmlns="http://www.w3.org/2000/svg">
<g clip-path="url(#clip0_347_153)">
<path d="M23.0835 -0.00292969H23.3359C25.6666 0.00557664 37.4762 0.0906404 40.6604 0.946944C41.623 1.20828 42.5002 1.71768 43.2043 2.42423C43.9083 3.13078 44.4146 4.00974 44.6726 4.97327C44.959 6.05074 45.1603 7.47697 45.2964 8.94856L45.3247 9.24345L45.3871 9.98067L45.4098 10.2756C45.5941 12.8671 45.6168 15.2943 45.6196 15.8245V16.0372C45.6168 16.5872 45.5913 19.1788 45.3871 21.8782L45.3644 22.1759L45.3389 22.4708C45.1971 24.0927 44.9873 25.7032 44.6726 26.8884C44.4154 27.8523 43.9094 28.7317 43.2052 29.4384C42.501 30.1451 41.6234 30.6542 40.6604 30.9147C37.3713 31.7994 24.8699 31.8618 23.1374 31.8646H22.7348C21.8586 31.8646 18.2349 31.8476 14.4354 31.7172L13.9534 31.7002L13.7067 31.6888L13.2219 31.669L12.737 31.6491C9.58965 31.5102 6.59259 31.2862 5.21173 30.9119C4.24906 30.6516 3.37171 30.1429 2.66755 29.4367C1.9634 28.7306 1.45716 27.8518 1.19957 26.8884C0.884839 25.706 0.675017 24.0927 0.533244 22.4708L0.510561 22.1731L0.487877 21.8782C0.347941 19.9569 0.270399 18.0316 0.255371 16.1052L0.255371 15.7565C0.261042 15.1468 0.283726 13.0401 0.436839 10.715L0.456688 10.423L0.465194 10.2756L0.487877 9.98067L0.550257 9.24345L0.578612 8.94856C0.714713 7.47697 0.916029 6.04791 1.20241 4.97327C1.45957 4.00936 1.9656 3.12998 2.66979 2.42331C3.37397 1.71664 4.25156 1.2075 5.21456 0.946944C6.59542 0.578337 9.59248 0.351501 12.7398 0.209728L13.2219 0.18988L13.7095 0.172868L13.9534 0.164362L14.4383 0.144514C17.1368 0.0576771 19.8364 0.00946932 22.5363 -9.41118e-05H23.0835V-0.00292969ZM18.4022 9.09884V22.76L30.1891 15.9323L18.4022 9.09884Z" fill="white"/>
</g>
<defs>
<clipPath id="clip0_347_153">
<rect width="45.3671" height="32" fill="white" transform="translate(0.255371)"/>
</clipPath>
</defs>
</svg>
